<?xml version="1.0" standalone="no"?><!DOCTYPE svg PUBLIC "-//W3C//DTD SVG 1.1//EN" "http://www.w3.org/Graphics/SVG/1.1/DTD/svg11.dtd"><svg t="1487494935966" class="icon" style="" viewBox="0 0 1024 1024" version="1.1" xmlns="http://www.w3.org/2000/svg" p-id="495" xmlns:xlink="http://www.w3.org/1999/xlink" width="128" height="128"><defs><style type="text/css"></style></defs><path d="M678.18496 483.42016c68.70016-26.26048 145.20832-76.13952 179.45088-170.8032 69.376-191.77472 22.33856-309.05856 22.33856-309.05856s-16.91648-3.1488-43.24864-3.1488c-97.74592 0-325.05856 43.4688-296.86272 452.74112-8.7808-0.45056-17.64352-0.75776-26.68544-0.75776-10.112 0-20.00384 0.38912-29.78816 0.95232 6.5792-52.46464 6.2464-139.76576-34.75456-253.11232C379.264 8.46336 136.45312 0.41472 136.45312 0.41472c-40.39168 340.05504 79.65184 456.61696 187.00288 494.67392-31.18592 16.47104-58.66496 37.57056-81.8688 63.1552-61.7728 68.10624-88.7552 161.91488-78.04416 271.2576 4.0192 41.00608 13.16352 80.49152 27.17696 117.34016 2.68288 7.05536 8.064 12.7744 14.9504 15.872l103.72608 46.63296c10.2912 4.6592 22.36928 2.74432 30.76608-4.80768 8.40192-7.55712 11.54048-19.36384 8.01792-30.09024-4.98176-15.17056-9.78432-30.85824-14.42304-47.21152-26.06592-92.04224-15.36-178.71872 29.34272-237.84448 34.37056-45.4656 85.28384-69.48352 147.22048-69.48352 61.93664 0 112.84992 24.01792 147.22048 69.48352 44.71296 59.12576 55.41376 145.82272 29.35808 237.824-6.02624 21.2736-11.98592 40.45312-18.21184 58.58816-3.712 10.78784-0.61952 22.76352 7.8336 30.40768 5.35552 4.84352 12.19584 7.36768 19.13856 7.36768 4.02944 0 8.09472-0.85504 11.89888-2.59584l110.3616-50.73408c6.59968-3.0464 11.78624-8.46848 14.5152-15.2064 15.80544-38.98368 26.02496-81.23904 30.3616-125.54752 10.72128-109.34272-16.26112-203.13088-78.03392-271.2576C755.64032 526.1056 719.7184 501.09952 678.18496 483.42016zM668.12928 127.232c50.51904-56.87808 118.05696-69.44256 166.56384-69.7856 6.74304 42.45504 9.78432 123.91424-30.67904 235.77088-31.01184 85.71392-108.928 126.2848-171.52512 145.408l72.17152-128.71168c5.9904-10.68544 2.0992-24.15104-8.68352-30.08-10.78784-5.93408-24.38656-2.08896-30.37696 8.59648l-70.50752 125.7472C591.03232 284.45696 615.77728 186.17344 668.12928 127.232zM259.12832 385.62816C202.29632 321.6384 177.90976 211.36896 187.6992 64.72704c64.6144 13.39392 169.68704 50.8928 207.31392 154.9056 35.23584 97.40288 37.47328 171.71456 33.06496 217.216L349.32224 298.83904c-6.11328-10.72128-20.00384-14.58176-31.02208-8.63232-11.01824 5.95456-14.98624 19.47136-8.86784 30.18752L384.5632 452.04992C343.15776 445.48608 296.49408 427.69408 259.12832 385.62816zM806.0672 823.93088c-3.42528 34.95936-10.96192 68.29568-22.44096 99.31776l-41.74336 19.19488c30.84288-109.25056 16.69632-214.00576-38.8352-287.44192-44.91776-59.40736-113.36192-92.11904-192.71168-92.11904-79.34976 0-147.79904 32.70656-192.71168 92.11904-53.71392 71.04512-68.70528 171.38176-41.68704 276.77184l-35.8656-16.13312c-9.99936-28.9792-16.63488-59.75552-19.76832-91.70944-9.09824-92.8768 12.87168-171.51488 63.53408-227.36896 51.69152-57.0112 130.9952-87.13728 229.3504-87.13728 10.94144 0 21.6064 0.4352 32.06656 1.17248 0.07168 0.61952 0.128 1.21856 0.2048 1.8432 0 0 4.19328-0.14336 11.58144-0.81408 78.13632 7.76704 141.7472 36.67456 185.50784 84.93568C793.20064 652.416 815.16032 731.05408 806.0672 823.93088z" p-id="496" fill="#d81e06"></path></svg>